<?xml version="1.0" encoding="utf-8"?>
<!-- Generator: Adobe Illustrator 24.1.3, SVG Export Plug-In . SVG Version: 6.00 Build 0)  -->
<svg version="1.1" id="Icon" xmlns="http://www.w3.org/2000/svg" xmlns:xlink="http://www.w3.org/1999/xlink" x="0px" y="0px"
	 viewBox="0 0 500 500" style="enable-background:new 0 0 500 500;" xml:space="preserve">
<style type="text/css">
	.st0{fill:#3CA543;}
	.st1{fill:#292D3E;}
	.st2{fill:#A6ACCD;}
</style>
<g id="icon">
	<g id="leaves">
		<path class="st0" d="M398,175.1c-1.7-6.1-2.8-11.6-4.9-17c-10.4-28.3-27-52.7-48.3-73.9c24.6,11.6,44.3,28.5,55.6,55.3
			c0.3-15.5-7.1-40.1-15.3-53.5c-9.1-15-22.3-24.4-39.8-26.8c-7.7-1.2-15.7-1.3-23.6-2.1c-6.7-0.6-13.5-1.7-21.1-2.6
			c0.1,2.3,0.1,4.6,0.3,6.8C305.5,113.8,345.3,160.7,398,175.1z"/>
		<path class="st0" d="M380.2,117.8c26,43.9,35.9,89.1,26.8,135.6c-2.6,13.1-6.6,25.9-11.8,38.1c-14.4,34.1-36.5,61.8-64,84.4
			l-0.5,0.1c-21.9,17.6-92.6,49.3-92.6,49.3s89.1-21.3,134-74.6c3.9-4.6,7.6-9.4,11.2-14.3c3.2-4.4,6.2-8.9,8.9-13.4
			c41.7-68.1,33.9-149.3-13.8-208.9C379.1,115.5,379.6,116.6,380.2,117.8z"/>
		<path class="st0" d="M460.6,160.7c-0.1-2.4,0-4.9-0.1-7.6c-0.8,0.1-1.5,0.3-2.4,0.4c-18.3,4.3-33,20.5-35.5,39.8
			c2.1-0.9,24.7-4,30.9-8.9c4.8-3.6,7.6-9.3,7.6-15.3C461.1,166.3,460.7,163.5,460.6,160.7z"/>
		<path class="st0" d="M431.9,106.6c6.2,14,8.2,28.5,3.1,44.1c5.8-6.4,11.8-19.6,13.3-28.3c1.7-9.8-0.4-18.5-7-26.1
			c-2.8-3.3-6.2-6.3-9.3-9.7c-2.6-2.8-5.2-5.7-8-8.9c-0.8,1-1.7,1.9-2.4,3c-17.4,24-17.9,58.7-1,84.4c1.5-3.2,3.1-6.1,4.3-9
			C430.8,140.2,433.3,123.3,431.9,106.6z"/>
	</g>
	<g id="pot">
		<path class="st1" d="M219.2,149.3c0.6,1,1.3,1.9,2.1,2.7c2.7,3.2,6.3,5.4,10.4,6.3l1.7-2.8c-1.7-2.3-2.7-5.2-2.8-8.1
			c0-1.3,3.6-4,4.6-4.4s1.9-0.6,3-0.8c0.9-0.1,1.9-0.3,2.8-0.1c0.9,0,1.7,0.1,2.6,0.4c2.2,1,4.3,2.3,6.2,3.9
			c3.3,2.7,6.4,5.5,9.4,8.5l3.2,0.6c4.9-2.2,8.6-6.3,10.6-11.2c1-2.4,1.5-5,1.7-7.7c0.1-3.1-0.5-6.2-1.7-9c-0.6-1.7-1.5-3.2-2.6-4.8
			c-2.4-3.2-5.7-5.8-9.4-7.3c-1.7-0.6-3.5-1.2-5.3-1.4c-1.5-0.3-3.2-0.3-4.8-0.1c-1.4,0.1-2.8,0.3-4.3,0.5c-2.6,0.5-5.2,1.2-7.7,2.1
			c-2.4,0.8-4.8,1.8-7,3.1c-2.1,1.3-4.1,2.7-5.9,4.4c-1.8,1.7-3.3,3.5-4.6,5.5c-1.4,2.2-2.6,4.5-3.5,7c-0.5,1.4-0.8,3-0.8,4.5
			c-0.1,1.5,0.1,3.2,0.5,4.6C218.1,146.9,218.6,148.2,219.2,149.3z"/>
		<path class="st1" d="M382,203.7c-3.5-2.1-7-4.1-10.7-6.1l-5.7-2.8l-1.4-0.8l-1.4-0.6l-3-1.3l-3-1.3l-1.5-0.6l-1.5-0.6l-6.2-2.6
			c-8.4-3.1-17-5.7-25.8-7.7l-3.3-0.8c-1.2-0.3-2.2-0.5-3.3-0.8l-6.7-1.3c-2.3-0.4-4.5-0.8-6.8-1.2l-3.3-0.5l-3.5-0.4l-6.8-0.8
			l-7-0.5c-1.2-0.1-2.3-0.3-3.5-0.3l-3.5-0.1c-2.3-0.1-4.6-0.3-7-0.3c-9.3-0.1-18.7,0-27.9,0.8c-2.3,0.1-4.6,0.4-7,0.6l-3.5,0.4
			c-1.2,0.1-2.3,0.3-3.5,0.4l-6.8,1l-1.7,0.3l-1.7,0.3l-3.3,0.6c-9,1.7-17.6,3.7-26,5.9c-16.9,4.5-32.7,9.7-48.4,14.6
			c-7.9,2.4-15.6,4.8-23.6,6.8c-8,2.1-15.8,3.9-24.1,5.5c-4.6,0.9-9.3,1.8-13.9,2.6c-1.7-2.4-3.5-4.9-5.4-7.3
			c-2.3-2.8-4.4-5.7-6.7-8.5s-4.6-5.4-7.2-8c-5.2-5-10.9-9.4-17.4-11.7c5.5,4.1,10.3,9.1,14,15.1c1.9,2.8,3.7,5.9,5.4,8.9l5,9.3
			c0.6,1.3,1.3,2.4,1.9,3.7l-0.6,0.1c-8.5,1.2-17,2.2-25.8,3.1c8.6,1.7,17.4,2.7,26.1,3.3c1.2,0.1,2.3,0.1,3.5,0.3
			c4.4,9.3,8.4,18.7,12.1,28.2c5.3,13.1,10,26.7,14.9,40.3c1.3,3.3,2.4,6.8,3.7,10.2c1.3,3.3,2.6,6.8,3.9,10.2
			c2.6,6.8,5.3,13.7,8,20.5c5.5,13.8,12.1,27.2,19.3,40.2l2.8,4.9c0.9,1.7,2.1,3.2,3,4.8l3.1,4.8l1.5,2.4c0.5,0.8,1,1.5,1.7,2.4
			c2.2,3.2,4.6,6.4,7.3,9.5c2.8,3.2,5.9,6.3,9.1,9c3.5,3,7.3,5.4,11.5,7.5c4,1.9,8.2,3.3,12.6,4.1c3.7,0.8,7.6,1.3,11.3,1.7l10.2,1
			c6.7,0.6,48.2-30,41.7-30.3c-6.4-0.3-13.1-0.6-19.7-1c-6.6-0.4-13.1-0.8-19.8-1.3l-9.8-0.8c-3.1-0.3-6.1-0.5-8.5-1
			c-2.3-0.4-4.5-1-6.6-1.9s-4-2.1-5.9-3.5c-4.5-3.6-8.4-7.7-11.8-12.2c-0.5-0.6-1-1.3-1.4-1.9l-1.4-2.1l-3-4
			c-0.9-1.4-1.9-2.7-2.8-4.1l-2.7-4.3l-2.7-4.3c-0.9-1.4-1.8-3-2.7-4.4l-2.6-4.4l-1.3-2.2l-1.3-2.3c-1.7-3-3.3-6.1-5-9l-4.9-9.3
			c-3.1-6.3-6.3-12.5-9.4-18.9l-9.3-19.3c-3.1-6.4-6.3-13-9.5-19.4l-5-9.7c-0.8-1.5-1.7-3.2-2.6-4.8l-2.6-4.8
			c-3.9-7-8-13.8-12.2-20.4c1.2,0,2.3,0,3.5,0c2.3,0,4.5,0,6.7-0.1c9-0.3,18-0.9,26.9-2.1s17.8-2.6,26.3-4.3
			c17.1-3.3,33.6-7.5,49.7-10.8c8.1-1.7,16-3.3,24-4.5l3-0.5l1.4-0.3l1.4-0.1l5.9-0.8c1-0.1,1.9-0.3,3-0.4l3-0.3
			c1.9-0.1,4-0.4,5.9-0.5l5.9-0.4c2.1-0.1,4-0.1,6.1-0.3c4-0.3,8-0.1,12-0.3c2.1,0,4,0.1,6.1,0.1h3l3,0.1l6.1,0.3l6.1,0.5l3,0.3
			l3,0.3c1.9,0.3,4,0.4,5.9,0.6s4,0.5,5.9,0.8c1,0.1,1.9,0.3,3,0.4l3,0.5c8,1.2,15.7,3,23.4,4.8l5.8,1.5l1.4,0.4l1.4,0.4l2.8,0.9
			l2.8,0.8c0.5,0.1,1,0.3,1.4,0.4l1.4,0.5l5.7,1.9c7.5,2.6,26.4,11.1,26.4,11.1l2.2-12.1C387.3,207.6,384.7,205.5,382,203.7z"/>
		<path class="st2" d="M339.5,256.6c-32.6-14.4-68.4-19.8-103.7-15.6c-36.8,4.4-73.4,11.5-109.6,17.4c11.8,21.5,23.8,44.1,36.6,66.1
			c5.9,10.2,13,19.6,20,29.1c5.3,7.2,12.2,11.5,21.8,11.8c20.7,0.8,41.5,2.1,62.3,3c10.4,0.4,20.6-2.4,29.2-8.2
			c29.9-19.8,50.4-46.8,58.6-82.2c0.9-3.9-0.9-9.5-3.3-12.9C348.5,261.4,343.9,258.6,339.5,256.6z"/>
	</g>
</g>
</svg>
